<?xml version="1.0" standalone="no"?>
<!DOCTYPE svg PUBLIC "-//W3C//DTD SVG 20010904//EN"
 "http://www.w3.org/TR/2001/REC-SVG-20010904/DTD/svg10.dtd">
<svg version="1.0" xmlns="http://www.w3.org/2000/svg"
 width="180.000000pt" height="180.000000pt" viewBox="0 0 180.000000 180.000000"
 preserveAspectRatio="xMidYMid meet">

<g transform="translate(0.000000,180.000000) scale(0.100000,-0.100000)"
fill="#000000" stroke="none">
<path d="M0 900 l0 -900 900 0 900 0 0 900 0 900 -900 0 -900 0 0 -900z m799
132 l81 -83 0 -134 0 -135 -55 0 -55 0 0 149 0 150 -26 20 c-24 19 -40 21
-169 21 l-142 0 -1 46 c-1 25 0 49 2 52 2 4 67 5 144 2 l140 -5 81 -83z m571
38 l0 -50 -144 0 c-130 0 -146 -2 -170 -21 l-26 -20 0 -150 0 -149 -55 0 -55
0 0 136 0 137 84 83 84 84 141 0 141 0 0 -50z"/>
</g>
</svg>
